<svg width="109" height="142" viewBox="0 0 109 142" fill="none" xmlns="http://www.w3.org/2000/svg">
<path d="M109 109L109 54.5C109 24.4005 84.5995 3.49472e-05 54.5 3.10002e-05V3.10002e-05C24.4005 2.70531e-05 3.19158e-05 24.4005 2.79687e-05 54.5L2.08219e-05 109L109 109Z" fill="#00D4E6"/>
<path d="M22.9473 109C22.9473 91.0459 37.502 76.4912 55.4561 76.4912C73.4102 76.4912 87.9648 91.0459 87.9648 109L22.9473 109Z" fill="#51E5A5"/>
<path d="M22.9473 109C22.9473 126.954 37.502 141.509 55.4561 141.509C73.4102 141.509 87.9648 126.954 87.9648 109L22.9473 109Z" fill="#0F81BD"/>
<path d="M54.5 65.0176C63.4771 65.0176 70.7544 57.7402 70.7544 48.7632V48.7632C70.7544 39.7861 63.4771 32.5088 54.5 32.5088V32.5088C45.523 32.5088 38.2456 39.7861 38.2456 48.7632V48.7632C38.2456 57.7402 45.523 65.0176 54.5 65.0176V65.0176Z" fill="#F5F5F7"/>
<path d="M109 109L109 54.5C109 24.4005 84.5995 3.49472e-05 54.5 3.10002e-05V3.10002e-05C24.4005 2.70531e-05 3.19158e-05 24.4005 2.79687e-05 54.5L2.08219e-05 109L109 109Z" fill="#00D4E6"/>
<path d="M22.9473 109C22.9473 91.0459 37.502 76.4912 55.4561 76.4912C73.4102 76.4912 87.9648 91.0459 87.9648 109L22.9473 109Z" fill="#51E5A5"/>
<path d="M22.9473 109C22.9473 126.954 37.502 141.509 55.4561 141.509C73.4102 141.509 87.9648 126.954 87.9648 109L22.9473 109Z" fill="#0F81BD"/>
<path d="M54.5 65.0176C63.4771 65.0176 70.7544 57.7402 70.7544 48.7632V48.7632C70.7544 39.7861 63.4771 32.5088 54.5 32.5088V32.5088C45.523 32.5088 38.2456 39.7861 38.2456 48.7632V48.7632C38.2456 57.7402 45.523 65.0176 54.5 65.0176V65.0176Z" fill="#F5F5F7"/>
</svg>
